<svg width="165" height="280" viewBox="0 0 165 280" fill="none" xmlns="http://www.w3.org/2000/svg">
<g id="left-navigation-icon" clip-path="url(#clip0)">
<path id="Vector" d="M118.52 138.264C118.52 199.091 91.988 220.33 59.2598 220.33C26.5315 220.33 0 199.091 0 138.264C0 77.4363 59.2598 0.0541992 59.2598 0.0541992C59.2598 0.0541992 118.52 77.4363 118.52 138.264Z" fill="#F2F2F2"/>
<path id="Vector_2" d="M57.1012 211.025L57.7077 160.118L82.9657 97.1389L57.8031 152.132L58.0757 129.242L75.4837 83.6772L58.1479 123.185L58.6389 82.0164L77.2792 45.7409L58.7158 75.543L59.0223 0.0541534L57.0958 99.9871L57.2539 95.8649L38.302 56.3268L56.9503 103.779L55.1844 149.757L55.1317 148.536L33.2834 106.929L55.0656 152.848L54.8446 158.598L54.8053 158.684L54.8233 159.156L50.343 275.806H56.3289L57.047 215.554L78.7758 169.748L57.1012 211.025Z" fill="#3F3D56"/>
<path id="Vector_3" d="M82.5 280C128.063 280 165 277.577 165 274.587C165 271.597 128.063 269.174 82.5 269.174C36.9365 269.174 0 271.597 0 274.587C0 277.577 36.9365 280 82.5 280Z" fill="#3F3D56"/>
<path id="Vector_4" d="M149 107H131V275H149V107Z" fill="#2F2E41"/>
<g id="left-sign">
<path id="Vector_5" d="M164.5 116.5V185.5H46.5677L12.7007 151L46.5677 116.5H164.5Z" fill="#8D88CD" stroke="black"/>
</g>
<g id="leaf">
<path id="Vector_6" d="M117.69 256.032C117.69 267.089 112.868 270.949 106.919 270.949C106.781 270.949 106.644 270.947 106.506 270.943C106.231 270.935 105.958 270.917 105.688 270.892C100.319 270.374 96.1474 266.315 96.1474 256.032C96.1474 245.391 106.125 231.963 106.874 230.969L106.876 230.967C106.905 230.929 106.919 230.91 106.919 230.91C106.919 230.91 117.69 244.976 117.69 256.032Z" fill="#00BFA6"/>
<path id="Vector_7" d="M106.527 269.258L110.466 261.755L106.517 270.082L106.506 270.943C106.231 270.935 105.958 270.917 105.688 270.892L106.112 259.83L106.109 259.744L106.116 259.728L106.156 258.683L102.197 250.336L106.169 257.9L106.178 258.122L106.499 249.764L103.109 241.138L106.54 248.297L106.874 230.969L106.876 230.91V230.967L106.82 244.631L110.194 239.214L106.806 245.808L106.717 253.292L109.868 246.11L106.704 254.393L106.654 258.553L111.228 248.557L106.637 260.005L106.527 269.258Z" fill="#3F3D56"/>
</g>
</g>
<defs>
<clipPath id="clip0">
<rect width="165" height="280" fill="white"/>
</clipPath>
</defs>
</svg>
