<svg width="354" height="370" viewBox="0 0 354 370" fill="none" xmlns="http://www.w3.org/2000/svg">
<g id="left-nav">
<path id="Vector" d="M167.611 74.9545H50.8023C49.0609 74.9545 47.3908 74.2627 46.1594 73.0313C44.928 71.7999 44.2362 70.1298 44.2362 68.3883C44.2362 66.6469 44.928 64.9768 46.1594 63.7454C47.3908 62.514 49.0609 61.8222 50.8023 61.8222H167.611C169.352 61.8222 171.022 62.514 172.253 63.7454C173.485 64.9768 174.177 66.6469 174.177 68.3883C174.177 70.1298 173.485 71.7999 172.253 73.0313C171.022 74.2627 169.352 74.9545 167.611 74.9545V74.9545Z" fill="#B4B4B4"/>
<path id="Vector_2" d="M312.757 74.9545H195.949C194.207 74.9545 192.537 74.2627 191.306 73.0313C190.074 71.7999 189.382 70.1298 189.382 68.3883C189.382 66.6469 190.074 64.9768 191.306 63.7454C192.537 62.514 194.207 61.8222 195.949 61.8222H312.757C314.498 61.8222 316.168 62.514 317.4 63.7454C318.631 64.9768 319.323 66.6469 319.323 68.3883C319.323 70.1298 318.631 71.7999 317.4 73.0313C316.168 74.2627 314.498 74.9545 312.757 74.9545V74.9545Z" fill="#B4B4B4"/>
<path id="Vector_3" d="M312.757 99.8367H109.552C107.811 99.8367 106.14 99.1449 104.909 97.9135C103.678 96.6821 102.986 95.012 102.986 93.2705C102.986 91.5291 103.678 89.859 104.909 88.6276C106.14 87.3962 107.811 86.7044 109.552 86.7044H312.757C314.498 86.7044 316.168 87.3962 317.4 88.6276C318.631 89.859 319.323 91.5291 319.323 93.2705C319.323 95.012 318.631 96.6821 317.4 97.9135C316.168 99.1449 314.498 99.8367 312.757 99.8367Z" fill="#B4B4B4"/>
<path id="Vector_4" d="M167.611 49.7267H50.8023C49.0623 49.7245 47.3943 49.0318 46.1646 47.8006C44.935 46.5695 44.2443 44.9006 44.2443 43.1606C44.2443 41.4205 44.935 39.7516 46.1646 38.5205C47.3943 37.2893 49.0623 36.5966 50.8023 36.5944H167.611C168.473 36.5934 169.328 36.7624 170.126 37.0919C170.923 37.4214 171.648 37.9049 172.259 38.5147C172.869 39.1246 173.354 39.8488 173.684 40.6459C174.015 41.4431 174.185 42.2976 174.185 43.1606C174.185 44.0235 174.015 44.878 173.684 45.6752C173.354 46.4723 172.869 47.1966 172.259 47.8064C171.648 48.4162 170.923 48.8997 170.126 49.2292C169.328 49.5587 168.473 49.7278 167.611 49.7267V49.7267Z" fill="#B4B4B4"/>
<path id="Vector_5" d="M231.889 50.0723H198.713C196.972 50.0723 195.302 49.3805 194.07 48.1491C192.839 46.9177 192.147 45.2476 192.147 43.5061C192.147 41.7647 192.839 40.0946 194.07 38.8632C195.302 37.6318 196.972 36.94 198.713 36.94H231.889C233.631 36.94 235.301 37.6318 236.532 38.8632C237.764 40.0946 238.456 41.7647 238.456 43.5061C238.456 45.2476 237.764 46.9177 236.532 48.1491C235.301 49.3805 233.631 50.0723 231.889 50.0723Z" fill="#B4B4B4"/>
<path id="Vector_6" d="M83.9786 99.8367H50.8023C49.0623 99.8345 47.3943 99.1418 46.1646 97.9106C44.935 96.6795 44.2443 95.0106 44.2443 93.2705C44.2443 91.5305 44.935 89.8616 46.1646 88.6304C47.3943 87.3993 49.0623 86.7066 50.8023 86.7044H83.9786C84.8416 86.7033 85.6963 86.8724 86.4939 87.2019C87.2914 87.5314 88.0162 88.0149 88.6268 88.6247C89.2374 89.2345 89.7218 89.9588 90.0523 90.7559C90.3828 91.5531 90.5529 92.4076 90.5529 93.2705C90.5529 94.1335 90.3828 94.988 90.0523 95.7852C89.7218 96.5823 89.2374 97.3065 88.6268 97.9164C88.0162 98.5262 87.2914 99.0097 86.4939 99.3392C85.6963 99.6687 84.8416 99.8377 83.9786 99.8367Z" fill="#B4B4B4"/>
<path id="Vector_7" d="M167.611 307.954H50.8023C49.0609 307.954 47.3908 307.263 46.1594 306.031C44.928 304.8 44.2362 303.13 44.2362 301.388C44.2362 299.647 44.928 297.977 46.1594 296.745C47.3908 295.514 49.0609 294.822 50.8023 294.822H167.611C168.473 294.822 169.327 294.992 170.123 295.322C170.92 295.652 171.644 296.136 172.253 296.745C172.863 297.355 173.347 298.079 173.677 298.876C174.007 299.672 174.177 300.526 174.177 301.388C174.177 302.251 174.007 303.104 173.677 303.901C173.347 304.698 172.863 305.422 172.253 306.031C171.644 306.641 170.92 307.125 170.123 307.455C169.327 307.785 168.473 307.954 167.611 307.954V307.954Z" fill="#B4B4B4"/>
<path id="Vector_8" d="M312.757 307.954H195.949C194.207 307.954 192.537 307.263 191.306 306.031C190.074 304.8 189.382 303.13 189.382 301.388C189.382 299.647 190.074 297.977 191.306 296.745C192.537 295.514 194.207 294.822 195.949 294.822H312.757C313.619 294.822 314.473 294.992 315.269 295.322C316.066 295.652 316.79 296.136 317.4 296.745C318.009 297.355 318.493 298.079 318.823 298.876C319.153 299.672 319.323 300.526 319.323 301.388C319.323 302.251 319.153 303.104 318.823 303.901C318.493 304.698 318.009 305.422 317.4 306.031C316.79 306.641 316.066 307.125 315.269 307.455C314.473 307.785 313.619 307.954 312.757 307.954V307.954Z" fill="#B4B4B4"/>
<path id="Vector_9" d="M312.757 332.837H109.552C107.811 332.837 106.14 332.145 104.909 330.914C103.678 329.682 102.986 328.012 102.986 326.271C102.986 324.529 103.678 322.859 104.909 321.628C106.14 320.396 107.811 319.704 109.552 319.704H312.757C313.62 319.703 314.474 319.872 315.272 320.202C316.07 320.531 316.794 321.015 317.405 321.625C318.015 322.235 318.5 322.959 318.83 323.756C319.161 324.553 319.331 325.408 319.331 326.271C319.331 327.133 319.161 327.988 318.83 328.785C318.5 329.582 318.015 330.307 317.405 330.916C316.794 331.526 316.07 332.01 315.272 332.339C314.474 332.669 313.62 332.838 312.757 332.837Z" fill="#B4B4B4"/>
<path id="Vector_10" d="M167.611 282.727H50.8023C49.0609 282.727 47.3908 282.035 46.1594 280.803C44.928 279.572 44.2362 277.902 44.2362 276.161C44.2362 274.419 44.928 272.749 46.1594 271.518C47.3908 270.286 49.0609 269.594 50.8023 269.594H167.611C169.352 269.594 171.022 270.286 172.253 271.518C173.485 272.749 174.177 274.419 174.177 276.161C174.177 277.902 173.485 279.572 172.253 280.803C171.022 282.035 169.352 282.727 167.611 282.727Z" fill="#B4B4B4"/>
<path id="Vector_11" d="M231.889 283.072H198.713C196.972 283.072 195.302 282.38 194.07 281.149C192.839 279.918 192.147 278.248 192.147 276.506C192.147 274.765 192.839 273.095 194.07 271.863C195.302 270.632 196.972 269.94 198.713 269.94H231.889C233.631 269.94 235.301 270.632 236.532 271.863C237.764 273.095 238.456 274.765 238.456 276.506C238.456 278.248 237.764 279.918 236.532 281.149C235.301 282.38 233.631 283.072 231.889 283.072V283.072Z" fill="#B4B4B4"/>
<path id="Vector_12" d="M83.9786 332.837H50.8023C49.0609 332.837 47.3908 332.145 46.1594 330.914C44.928 329.682 44.2362 328.012 44.2362 326.271C44.2362 324.529 44.928 322.859 46.1594 321.628C47.3908 320.396 49.0609 319.704 50.8023 319.704H83.9786C84.8416 319.703 85.6963 319.872 86.4939 320.202C87.2914 320.531 88.0162 321.015 88.6268 321.625C89.2374 322.235 89.7218 322.959 90.0523 323.756C90.3828 324.553 90.5529 325.408 90.5529 326.271C90.5529 327.133 90.3828 327.988 90.0523 328.785C89.7218 329.582 89.2374 330.307 88.6268 330.916C88.0162 331.526 87.2914 332.01 86.4939 332.339C85.6963 332.669 84.8416 332.838 83.9786 332.837Z" fill="#B4B4B4"/>
<g id="arrow">
<path id="Vector_13" d="M210.243 249C206.462 249.007 202.83 247.82 200.139 245.698L133.151 192.871C131.836 191.834 130.792 190.598 130.08 189.236C129.367 187.875 129 186.413 129 184.937C129 183.461 129.367 182 130.08 180.638C130.792 179.276 131.836 178.041 133.151 177.004L199.868 124.389C202.647 122.208 206.392 120.99 210.289 121C214.185 121.01 217.92 122.247 220.682 124.442C223.447 126.655 225 129.653 225 132.779C225 135.906 223.447 138.904 220.683 141.117L171.107 180.71C169.562 181.946 168.695 183.621 168.695 185.368C168.695 187.114 169.562 188.79 171.107 190.026L220.414 229.404C222.427 231.009 223.799 233.055 224.355 235.283C224.911 237.511 224.626 239.82 223.537 241.919C222.448 244.018 220.603 245.811 218.237 247.071C215.87 248.332 213.088 249.003 210.243 249V249Z" fill="#00BFA6"/>
</g>
</g>
</svg>
