<svg width="42" height="55" viewBox="0 0 42 55" fill="none" xmlns="http://www.w3.org/2000/svg">
<g id="left-nav" clip-path="url(#clip0)">
<g id="arrow">
<path id="Vector" d="M34.9093 55C33.2843 55.0029 31.7237 54.493 30.5673 53.5812L1.78383 30.882C1.21875 30.4363 0.770097 29.9055 0.463881 29.3203C0.157665 28.7352 0 28.1072 0 27.473C0 26.8388 0.157665 26.2109 0.463881 25.6257C0.770097 25.0405 1.21875 24.5097 1.78383 24.064L30.451 1.4564C31.6453 0.519127 33.2542 -0.00418922 34.9287 2.52595e-05C36.6031 0.00423974 38.2079 0.535645 39.3948 1.47891C40.5828 2.42981 41.25 3.71821 41.25 5.06148C41.25 6.40474 40.5829 7.69316 39.3949 8.64409L18.0927 25.6566C17.4291 26.1878 17.0563 26.9077 17.0563 27.6581C17.0563 28.4086 17.4291 29.1283 18.0927 29.6596L39.2793 46.5797C40.1445 47.2693 40.7339 48.1484 40.9728 49.1058C41.2118 50.0631 41.0895 51.0556 40.6214 51.9574C40.1534 52.8591 39.3607 53.6297 38.3438 54.1713C37.3269 54.713 36.1316 55.0014 34.9093 55V55Z" fill="#00BFA6"/>
</g>
</g>
<defs>
<clipPath id="clip0">
<rect width="41.25" height="55" fill="white"/>
</clipPath>
</defs>
</svg>
