<svg width="165" height="280" viewBox="0 0 165 280" fill="none" xmlns="http://www.w3.org/2000/svg">
<g id="right-navigation-icon">
<path id="Vector" d="M62.213 65.9601C74.5692 65.9601 84.5859 54.4327 84.5859 40.213C84.5859 25.9932 74.5692 14.4658 62.213 14.4658C49.8568 14.4658 39.8402 25.9932 39.8402 40.213C39.8402 54.4327 49.8568 65.9601 62.213 65.9601Z" fill="#FF6584"/>
<path id="Vector_2" d="M164.877 138.037C164.877 198.789 133.494 220.001 94.7812 220.001C56.0685 220.001 24.6857 198.789 24.6857 138.037C24.6857 77.2858 94.7812 0 94.7812 0C94.7812 0 164.877 77.2858 164.877 138.037Z" fill="#F2F2F2"/>
<path id="Vector_3" d="M92.2277 210.708L92.9453 159.865L122.822 96.9637L93.0579 151.889L93.3809 129.027L113.972 83.5193L93.4662 122.978L94.0465 81.8602L116.096 45.63L94.1377 75.3944L94.5006 4.57764e-05L92.2214 99.8088L92.4087 95.6912L69.9915 56.2028L92.0494 103.595L89.9603 149.516L89.8984 148.297L64.055 106.742L89.8201 152.603L89.5586 158.346L89.5122 158.433L89.5335 158.904L84.2339 275.409H91.3142L92.164 215.232L117.866 169.482L92.2277 210.708Z" fill="#3F3D56"/>
<path id="Vector_4" d="M82.6748 280C128.142 280 165 278.019 165 275.575C165 273.131 128.142 271.149 82.6748 271.149C37.2078 271.149 0.349576 273.131 0.349576 275.575C0.349576 278.019 37.2078 280 82.6748 280Z" fill="#3F3D56"/>
<path id="Vector_5" d="M40 87H19V275H40V87Z" fill="#2F2E41"/>
<g id="right-sign">
<path id="Vector_6" d="M153.301 135.279L119.283 170.058H0.838044V100.5H119.283L153.301 135.279Z" fill="#8D88CD" stroke="black"/>
</g>
</g>
</svg>
